<mxfile host="app.diagrams.net" agent="Mozilla/5.0 (X11; Linux x86_64; rv:132.0) Gecko/20100101 Firefox/132.0" version="24.8.4">
  <diagram name="第 1 页" id="f2C9azBvbqwrPbyLchOI">
    <mxGraphModel dx="1434" dy="822" grid="1" gridSize="10" guides="1" tooltips="1" connect="1" arrows="1" fold="1" page="1" pageScale="1" pageWidth="827" pageHeight="1169" math="0" shadow="0">
      <root>
        <mxCell id="0" />
        <mxCell id="1" parent="0" />
        <mxCell id="LaPq8CfM4VIGgw-9wt1N-1" value="" style="rounded=0;whiteSpace=wrap;html=1;" parent="1" vertex="1">
          <mxGeometry x="100" y="210" width="190" height="150" as="geometry" />
        </mxCell>
        <mxCell id="LaPq8CfM4VIGgw-9wt1N-2" value="token 1 chunk 1" style="rounded=0;whiteSpace=wrap;html=1;fillColor=#dae8fc;strokeColor=#6c8ebf;" parent="1" vertex="1">
          <mxGeometry x="110" y="220" width="170" height="20" as="geometry" />
        </mxCell>
        <mxCell id="LaPq8CfM4VIGgw-9wt1N-3" value="&lt;div&gt;token1 chunk2&lt;/div&gt;" style="rounded=0;whiteSpace=wrap;html=1;fillColor=#dae8fc;strokeColor=#6c8ebf;" parent="1" vertex="1">
          <mxGeometry x="110" y="250" width="170" height="20" as="geometry" />
        </mxCell>
        <mxCell id="LaPq8CfM4VIGgw-9wt1N-4" value="" style="rounded=0;whiteSpace=wrap;html=1;" parent="1" vertex="1">
          <mxGeometry x="319" y="210" width="190" height="150" as="geometry" />
        </mxCell>
        <mxCell id="LaPq8CfM4VIGgw-9wt1N-5" value="t2c1" style="rounded=0;whiteSpace=wrap;html=1;fillColor=#d5e8d4;strokeColor=#82b366;" parent="1" vertex="1">
          <mxGeometry x="329" y="220" width="170" height="20" as="geometry" />
        </mxCell>
        <mxCell id="LaPq8CfM4VIGgw-9wt1N-6" value="t2c2" style="rounded=0;whiteSpace=wrap;html=1;fillColor=#d5e8d4;strokeColor=#82b366;" parent="1" vertex="1">
          <mxGeometry x="329" y="250" width="170" height="20" as="geometry" />
        </mxCell>
        <mxCell id="LaPq8CfM4VIGgw-9wt1N-10" value="t3c1" style="rounded=0;whiteSpace=wrap;html=1;fillColor=#fff2cc;strokeColor=#d6b656;" parent="1" vertex="1">
          <mxGeometry x="110" y="280" width="170" height="20" as="geometry" />
        </mxCell>
        <mxCell id="LaPq8CfM4VIGgw-9wt1N-11" value="t3c2" style="rounded=0;whiteSpace=wrap;html=1;fillColor=#fff2cc;strokeColor=#d6b656;" parent="1" vertex="1">
          <mxGeometry x="110" y="310" width="170" height="20" as="geometry" />
        </mxCell>
        <mxCell id="LaPq8CfM4VIGgw-9wt1N-12" value="t4c1" style="rounded=0;whiteSpace=wrap;html=1;fillColor=#e1d5e7;strokeColor=#9673a6;" parent="1" vertex="1">
          <mxGeometry x="329" y="280" width="170" height="20" as="geometry" />
        </mxCell>
        <mxCell id="LaPq8CfM4VIGgw-9wt1N-13" value="t4c2" style="rounded=0;whiteSpace=wrap;html=1;fillColor=#e1d5e7;strokeColor=#9673a6;" parent="1" vertex="1">
          <mxGeometry x="329" y="310" width="170" height="20" as="geometry" />
        </mxCell>
        <mxCell id="Zx_W-T06vxxgGi5QFhx9-2" value="s3" style="ellipse;whiteSpace=wrap;html=1;aspect=fixed;fillColor=#ffe6cc;strokeColor=#d79b00;" vertex="1" parent="1">
          <mxGeometry x="20" y="280" width="50" height="50" as="geometry" />
        </mxCell>
        <mxCell id="Zx_W-T06vxxgGi5QFhx9-3" value="s2" style="ellipse;whiteSpace=wrap;html=1;aspect=fixed;fillColor=#d5e8d4;strokeColor=#82b366;" vertex="1" parent="1">
          <mxGeometry x="540" y="210" width="50" height="50" as="geometry" />
        </mxCell>
        <mxCell id="Zx_W-T06vxxgGi5QFhx9-4" value="s4" style="ellipse;whiteSpace=wrap;html=1;aspect=fixed;fillColor=#e1d5e7;strokeColor=#9673a6;" vertex="1" parent="1">
          <mxGeometry x="540" y="280" width="50" height="50" as="geometry" />
        </mxCell>
        <mxCell id="Zx_W-T06vxxgGi5QFhx9-5" value="S1" style="ellipse;whiteSpace=wrap;html=1;aspect=fixed;fillColor=#dae8fc;strokeColor=#6c8ebf;" vertex="1" parent="1">
          <mxGeometry x="20" y="220" width="50" height="50" as="geometry" />
        </mxCell>
        <mxCell id="Zx_W-T06vxxgGi5QFhx9-6" value="token 1 chunk 1" style="rounded=0;whiteSpace=wrap;html=1;fillColor=#dae8fc;strokeColor=#6c8ebf;" vertex="1" parent="1">
          <mxGeometry x="40" y="405" width="170" height="20" as="geometry" />
        </mxCell>
        <mxCell id="Zx_W-T06vxxgGi5QFhx9-7" value="t3c1" style="rounded=0;whiteSpace=wrap;html=1;fillColor=#fff2cc;strokeColor=#d6b656;" vertex="1" parent="1">
          <mxGeometry x="40" y="460" width="170" height="20" as="geometry" />
        </mxCell>
        <mxCell id="Zx_W-T06vxxgGi5QFhx9-8" value="S1" style="ellipse;whiteSpace=wrap;html=1;aspect=fixed;fillColor=#dae8fc;strokeColor=#6c8ebf;" vertex="1" parent="1">
          <mxGeometry x="249" y="390" width="50" height="50" as="geometry" />
        </mxCell>
        <mxCell id="Zx_W-T06vxxgGi5QFhx9-9" value="s3" style="ellipse;whiteSpace=wrap;html=1;aspect=fixed;fillColor=#ffe6cc;strokeColor=#d79b00;" vertex="1" parent="1">
          <mxGeometry x="249" y="445" width="50" height="50" as="geometry" />
        </mxCell>
        <mxCell id="Zx_W-T06vxxgGi5QFhx9-10" value="t2c1" style="rounded=0;whiteSpace=wrap;html=1;fillColor=#d5e8d4;strokeColor=#82b366;" vertex="1" parent="1">
          <mxGeometry x="320" y="405" width="170" height="20" as="geometry" />
        </mxCell>
        <mxCell id="Zx_W-T06vxxgGi5QFhx9-11" value="t4c1" style="rounded=0;whiteSpace=wrap;html=1;fillColor=#e1d5e7;strokeColor=#9673a6;" vertex="1" parent="1">
          <mxGeometry x="320" y="460" width="170" height="20" as="geometry" />
        </mxCell>
        <mxCell id="Zx_W-T06vxxgGi5QFhx9-12" value="s2" style="ellipse;whiteSpace=wrap;html=1;aspect=fixed;fillColor=#d5e8d4;strokeColor=#82b366;" vertex="1" parent="1">
          <mxGeometry x="540" y="390" width="50" height="50" as="geometry" />
        </mxCell>
        <mxCell id="Zx_W-T06vxxgGi5QFhx9-13" value="s4" style="ellipse;whiteSpace=wrap;html=1;aspect=fixed;fillColor=#e1d5e7;strokeColor=#9673a6;" vertex="1" parent="1">
          <mxGeometry x="540" y="445" width="50" height="50" as="geometry" />
        </mxCell>
        <mxCell id="Zx_W-T06vxxgGi5QFhx9-14" value="token 1 chunk 1" style="rounded=0;whiteSpace=wrap;html=1;fillColor=#dae8fc;strokeColor=#6c8ebf;" vertex="1" parent="1">
          <mxGeometry x="40" y="550" width="170" height="20" as="geometry" />
        </mxCell>
        <mxCell id="Zx_W-T06vxxgGi5QFhx9-15" value="token 1 chunk 1" style="rounded=0;whiteSpace=wrap;html=1;fillColor=#dae8fc;strokeColor=#6c8ebf;" vertex="1" parent="1">
          <mxGeometry x="40" y="585" width="170" height="20" as="geometry" />
        </mxCell>
      </root>
    </mxGraphModel>
  </diagram>
</mxfile>
